<?xml version="1.0" standalone="no"?><!DOCTYPE svg PUBLIC "-//W3C//DTD SVG 1.1//EN" "http://www.w3.org/Graphics/SVG/1.1/DTD/svg11.dtd"><svg t="1708681796017" class="icon" viewBox="0 0 1024 1024" version="1.1" xmlns="http://www.w3.org/2000/svg" p-id="8973" xmlns:xlink="http://www.w3.org/1999/xlink" width="200" height="200"><path d="M828.224 195.808s90.496 45.248 158.368-22.624 22.624-158.4 22.624-158.4-90.496-45.248-158.368 22.624c-67.872 67.904-22.624 158.4-22.624 158.4z" fill="#3AAD73" p-id="8974"></path><path d="M1009.216 14.784s-90.496-45.248-158.368 22.624c-67.872 67.904-22.624 158.4-22.624 158.4L1009.216 14.784z" fill="" p-id="8975"></path><path d="M831.456 458.72A190.592 190.592 0 0 0 864 352a192 192 0 0 0-192-192 190.592 190.592 0 0 0-106.72 32.544C542.016 206.016 494.016 274.784 480 288c-39.328 36.608-67.552 31.2-125.376 31.872l-0.128 0.256c-0.832 0-1.664-0.128-2.496-0.128-194.432 0-352 157.568-352 352s157.568 352 352 352 352-157.568 352-352c0-0.832-0.128-1.664-0.128-2.496l0.256-0.128c0.672-57.824-4.736-86.048 31.872-125.376 13.44-14.112 77.44-59.008 95.456-85.28z" fill="#E29460" p-id="8976"></path><path d="M352 896A446.976 446.976 0 0 1 5.472 731.84C33.92 897.728 177.984 1024 352 1024s318.08-126.272 346.528-292.16A446.976 446.976 0 0 1 352 896z" fill="" p-id="8977"></path><path d="M672 224a32 32 0 1 0 0 64 64 64 0 0 1 64 64 32 32 0 1 0 64 0 128 128 0 0 0-128-128z" fill="#FFFFFF" p-id="8978"></path></svg>